<svg width="48" height="49" viewBox="0 0 48 49" fill="none" xmlns="http://www.w3.org/2000/svg">
<path d="M34 6.125H14C9.58172 6.125 6 9.78134 6 14.2917V34.7083C6 39.2187 9.58172 42.875 14 42.875H34C38.4183 42.875 42 39.2187 42 34.7083V14.2917C42 9.78134 38.4183 6.125 34 6.125Z" stroke="#F8F9FA" stroke-linejoin="round"/>
<path d="M24 32.6667C28.4183 32.6667 32 29.0104 32 24.5C32 19.9897 28.4183 16.3334 24 16.3334C19.5817 16.3334 16 19.9897 16 24.5C16 29.0104 19.5817 32.6667 24 32.6667Z" stroke="#F8F9FA" stroke-linejoin="round"/>
<path d="M36.5 13.2708C36.5 14.132 35.8188 14.8125 35 14.8125C34.1812 14.8125 33.5 14.132 33.5 13.2708C33.5 12.4096 34.1812 11.7291 35 11.7291C35.8188 11.7291 36.5 12.4096 36.5 13.2708Z" stroke="#F8F9FA"/>
</svg>
